<svg width="242" height="237" viewBox="0 0 242 237" fill="none" xmlns="http://www.w3.org/2000/svg">
<path d="M121.488 230.846C12.1283 236.165 -46.6869 102.494 69.4112 55.6254L80.4397 55.3657C80.4397 55.3657 119.956 55.473 164.373 56.2382C251.984 57.797 278.941 223.188 121.488 230.846Z" fill="#7A9C51"/>
<path d="M164.373 56.2382C251.984 57.797 278.941 223.188 121.488 230.846C12.1283 236.165 -46.6869 102.494 69.4112 55.6254L80.4397 55.3657M164.373 56.2382C162.393 56.2029 166.273 56.2709 164.373 56.2382ZM164.373 56.2382C119.956 55.473 80.4397 55.3657 80.4397 55.3657M164.373 56.2382C164.57 58.2047 159.37 59.9187 151.508 61.8159M80.4397 55.3657C80.4397 56.9822 86.9399 59.3397 96.0625 62.1611M148.445 80.4381C137.782 73.9219 112.609 67.2784 96.0625 62.1611M91.7739 80.4381C106.334 70.662 134.877 65.8292 151.508 61.8159M96.0625 62.1611L151.508 61.8159" stroke="#07372C" stroke-width="12" stroke-linecap="round" stroke-linejoin="round"/>
<path d="M218.288 85.033C241.263 176.932 133.435 240.036 29.5891 195.924C87.511 235.841 123.52 238.457 198.07 209.096C246.93 155.262 241.079 130.36 218.288 85.033Z" fill="#F6F0E4" stroke="#F6F0E4" stroke-width="12" stroke-linejoin="round"/>
<path d="M164.373 56.2382C251.984 57.797 278.941 223.188 121.488 230.846C12.1283 236.165 -46.6869 102.494 69.4112 55.6254L80.4397 55.3657M164.373 56.2382C162.393 56.2029 166.273 56.2709 164.373 56.2382ZM164.373 56.2382C119.956 55.473 80.4397 55.3657 80.4397 55.3657M164.373 56.2382C164.57 58.2047 159.37 59.9187 151.508 61.8159M80.4397 55.3657C80.4397 56.9822 86.9399 59.3397 96.0625 62.1611M148.445 80.4381C137.782 73.9219 112.609 67.2784 96.0625 62.1611M91.7739 80.4381C106.334 70.662 134.877 65.8292 151.508 61.8159M96.0625 62.1611L151.508 61.8159" stroke="black" stroke-width="12" stroke-linecap="round" stroke-linejoin="round"/>
<path d="M126.083 64.509C152.733 54.0938 166.995 43.1659 172.645 18.5596C141.399 21.3165 126.142 36.5374 126.083 64.509Z" fill="#7A9C51" stroke="black" stroke-width="12" stroke-linejoin="round"/>
<path d="M118.118 57.4633C130.678 38.7772 114.749 12.4329 96.0626 6C89.3233 17.3342 95.1436 45.5165 118.118 57.4633Z" fill="#7A9C51" stroke="black" stroke-width="12" stroke-linejoin="round"/>
<path d="M107.397 60.22C108.009 43.3719 81.6651 28.6682 55.9335 35.1012C64.5106 48.8859 85.0347 62.9771 107.397 60.22Z" fill="#7A9C51" stroke="black" stroke-width="12" stroke-linejoin="round"/>
<path d="M32.3461 121.486C37.2366 106.094 41.555 98.5905 52.8701 87.79" stroke="#F6F0E4" stroke-width="12" stroke-linecap="round" stroke-linejoin="round"/>
</svg>
